<?xml version="1.0" encoding="UTF-8"?>
<svg version="1.1" viewBox="400 400 800 800" width="1280" height="1280" xmlns="http://www.w3.org/2000/svg">
    <path transform="translate(971,405)" d="m0 0c3 1 3 1 4.34 3.31 4.51 10.6 7.92 21.5 11.2 32.6 0.969 3.21 1.95 6.41 2.93 9.62 5.08 16.6 9.98 33.4 12.7 50.6 0.162 1.01 0.324 2.02 0.491 3.05 1.38 8.95 2.21 17.8 2.26 26.8 0.00935 0.859 0.0187 1.72 0.0283 2.6 0.114 29.1-6.46 57.9-19.5 83.9-1.73 3.47-3.06 6.6-3.58 10.5 0.655-0.193 1.31-0.387 1.98-0.586 4.96-1.42 9.85-2.62 15-3.41 4.98-0.778 9.81-1.85 14.7-3.12 1.96-0.51 3.92-1.01 5.88-1.48 8.38-2.02 16.6-4.5 24.8-7.15 0.685-0.221 1.37-0.441 2.08-0.669 9.93-3.21 19.3-6.81 28.6-11.6 1.35-0.626 2.71-1.24 4.06-1.86 16.4-7.4 31.3-16.7 45.9-27.1 0.685-0.487 1.37-0.974 2.07-1.48 2.04-1.46 4.08-2.93 6.11-4.4 0.612-0.44 1.22-0.88 1.85-1.33 3.64-2.67 6.81-5.54 9.96-8.79 1.65-1.36 3.31-2.7 5-4 0.66 0.33 1.32 0.66 2 1 0.245 8.82-0.461 17.3-1.69 26-0.271 1.96-0.271 1.96-0.548 3.95-5.16 36.7-12.5 74.2-31 107-1.74 3.07-3.28 6.18-4.8 9.36-4.48 9-10.3 17.1-16.4 25.1-0.429 0.574-0.858 1.15-1.3 1.74-1.06 1.38-2.19 2.7-3.33 4.01h-2c-0.222 0.538-0.443 1.08-0.672 1.63-1.77 3.16-4.12 5.68-6.58 8.31-0.527 0.565-1.05 1.13-1.6 1.71-9.26 9.81-19 18.7-30.2 26.4-0.749 0.545-1.5 1.09-2.27 1.65-10.4 7.52-21.6 14-32.7 20.3v2c8.27 2.66 16.5 5.24 25 7.25 2.16 0.531 4.3 1.11 6.44 1.71 8.84 2.5 17.6 4.11 26.7 5.42 3.92 0.613 3.92 0.613 6.92 1.61 4.32 0.206 8.65 0.186 13 0.185 2.12 0.00217 4.24 0.0203 6.36 0.0393 6.41 0.0267 12.5-0.0626 18.7-1.72 2-0.516 3.93-0.821 5.98-1.08 11.6-1.47 23-3.85 34.4-6.43 0.781-0.173 1.56-0.347 2.37-0.525 2.25-0.502 4.5-1.02 6.75-1.54 1.01-0.225 1.01-0.225 2.05-0.455 3.96-0.936 6.97-2.31 10.4-4.48 3.31-0.688 3.31-0.688 6-1-6.29 22.2-24.3 43.5-40 60-0.471 0.499-0.943 0.997-1.43 1.51-7.43 7.81-15.2 14.7-23.8 21.2-1.68 1.29-3.32 2.62-4.95 3.97-23.7 19.5-51.6 34.3-80.1 45.3-2.39 0.931-4.76 1.89-7.14 2.86-24.4 9.7-50.7 16-76.5 20.2-1.11 0.183-2.22 0.365-3.37 0.553-19.3 3.12-38.6 4.67-58.1 5.75-0.8 0.0449-1.6 0.0898-2.43 0.136-2.06 0.112-4.12 0.213-6.18 0.313-2.86 0.0582-2.86 0.0582-4.93 1.25 1.47 3.77 3.32 5.13 6.75 7.19 0.984 0.601 1.97 1.2 2.98 1.82 1.08 0.657 2.16 1.31 3.27 1.99 1.76 1.12 3.51 2.26 5.27 3.4 2.9 1.88 5.82 3.74 8.73 5.6 0.807 0.525 1.61 1.05 2.45 1.59 7 4.4 14.5 7.79 22 11.3 4.24 1.97 8.42 4.04 12.6 6.15v2c0.99 0.33 1.98 0.66 3 1-1.7 0.0387-1.7 0.0387-3.44 0.0781-12.9 0.397-25.7 1.53-38.5 2.86-0.83 0.0854-1.66 0.171-2.51 0.259-10.5 1.09-21.1 2.33-31.5 3.8-1.83 0.245-1.83 0.245-3.69 0.496-3.41 0.458-3.41 0.458-7.06 1.5-3.07 0.802-5.97 1.18-9.12 1.4-6.89 0.592-13.6 1.88-20.4 3.23-0.668 0.132-1.34 0.263-2.02 0.399-4.91 0.97-9.82 1.97-14.7 2.98-1.29 0.266-2.58 0.532-3.91 0.806-42.7 8.92-83.7 22.5-123 41.2-0.936 0.441-1.87 0.881-2.84 1.33-35.7 16.9-68.5 39.3-97.4 66.2-2.29 2.1-4.61 4.16-6.96 6.18-6.88 6-12.8 12.5-18.5 19.6-1.99 2.43-4.04 4.77-6.15 7.09-8.85 9.86-16.5 20.8-24.1 31.6-1.08 1.54-1.08 1.54-2.18 3.11-1.61 2.3-3.22 4.59-4.82 6.89-2.24-0.0664-2.24-0.0664-5-1-1.69-2.33-2.92-4.39-4.19-6.94-0.377-0.738-0.755-1.48-1.14-2.24-8.94-18-15.9-37.4-19.2-57.3-0.432-2.53-0.956-5.03-1.5-7.54-1.77-8.96-2.03-17.8-2.06-26.9-0.00467-0.925-0.00935-1.85-0.0142-2.8 0.00209-0.879 0.00419-1.76 0.00635-2.66 0.00113-0.789 0.00226-1.58 0.00342-2.39 0.129-2.19 0.596-4.08 1.13-6.21-0.0206-1.22-0.0412-2.43-0.0625-3.69-0.0571-3.86 0.642-7.23 1.56-11 0.523-2.44 0.79-4.8 1-7.29 0.462-5.13 1.4-10 2.5-15.1 0.267-1.29 0.534-2.57 0.809-3.89 5.63-26.7 14.7-52.1 25.3-77.2 0.29-0.683 0.579-1.37 0.877-2.07 3.62-8.5 7.4-16.9 11.3-25.3 1.51-3.23 3-6.47 4.46-9.72 7.91-17.5 7.91-17.5 12.1-25.1 26.4-47 26.4-47 29.2-99-1.19-2.47-2.47-4.58-4.09-6.78-0.469-0.697-0.938-1.39-1.42-2.11-2.36-3.16-3.92-4.66-7.7-5.95-4.36 0.0703-8.37 0.795-12.6 1.57-11.5 1.76-26.4 1.06-36.8-4.76-4.27-2.17-5.87-2.09-10.4-0.75-7.65 3.03-13.9 7.53-20 13-0.628 0.559-1.26 1.12-1.9 1.7-5.96 6.03-8.94 14-12.2 21.6-0.85 1.66-0.85 1.66-2.85 3.66-2.69 0.486-5.29 0.85-8 1.12-0.797 0.0835-1.59 0.167-2.41 0.253-14.6 1.41-29.5 2.62-42.3-5.53-4.61-3.81-7.06-9.06-8.24-14.8-0.0921-1.98-0.131-3.96-0.133-5.94l-0.00391-3.46c0.0058-1.78 0.0058-1.78 0.0117-3.6-0.00387-1.19-0.00773-2.38-0.0117-3.6 0.00129-1.14 0.00258-2.28 0.00391-3.46l0.00342-3.16c0.114-2.44 0.478-4.44 1.13-6.78-0.00531-1.46-0.0483-2.92-0.125-4.38-0.0142-4.33 0.51-7.03 3.12-10.6 3.26-2.59 6.92-4.43 10.6-6.36 21.3-11.3 37.9-28.4 45.4-51.6 0.418-1.71 0.823-3.41 1.21-5.12 2.26-9.19 4.25-15.8 12.6-21.1 3.51-1.95 7.07-3.77 10.7-5.53 3.79-1.93 7.27-4.24 10.8-6.61 1.37-0.898 2.74-1.79 4.12-2.69 1.09-0.708 1.09-0.708 2.2-1.43 4.91-3.17 9.86-6.28 14.8-9.38l2.99-1.89c5.68-3.56 11.4-6.9 17.3-10 2.46-1.3 2.46-1.3 5.29-3.26-0.556-4.42-1.69-7.78-3.69-11.8-2.61-5.5-4.79-11-6.75-16.8-0.271-0.774-0.542-1.55-0.821-2.34-1.26-3.8-1.96-6.27-0.741-10.1 4.94-1.57 9.07-0.136 14 1 1.33 0.259 1.33 0.259 2.69 0.523 15.3 3.28 29 10.5 41 20.5 0.655 0.539 1.31 1.08 1.99 1.63 1.29 1.07 2.57 2.15 3.84 3.24 5.55 4.62 10.9 6.53 18.3 6.02 5.04-0.116 9.37 0.952 14.2 2.29 2.88 0.733 5.66 1.15 8.61 1.52 27.4 4.36 53.3 21 73.4 39.2 1.14 1.01 2.27 2.03 3.41 3.04 6.92 6.23 13.8 12.7 19.6 20v2c2.6 1.13 2.6 1.13 6 1 5.24-3.35 9.14-8.21 13-13 1.12-1.14 2.24-2.27 3.38-3.39 2.03-2.01 4.04-4.04 6.05-6.07 1.67-1.68 3.34-3.35 5-5.03 0.833-0.842 1.67-1.68 2.53-2.55 4.2-4.22 8.43-8.18 13-11.9 1.69-1.64 3.36-3.31 5-5 5.13-5.21 10.3-10.3 15.8-15.1 2.78-2.42 5.49-4.91 8.2-7.41 3.23-2.98 6.48-5.94 9.81-8.81 4.63-4.01 9.08-8.23 13.5-12.4 3.59-3.36 7.21-6.68 10.9-9.95 4.49-4 8.72-8.24 12.9-12.5 2.14-2.09 4.28-4.04 6.54-5.99 5.01-4.35 9.68-9.02 14.4-13.7 0.859-0.855 1.72-1.71 2.6-2.59 4.99-4.99 9.76-10.1 14.3-15.5 0.936-1.08 1.87-2.16 2.81-3.24 5.75-6.7 11.1-13.6 16.2-20.8 1.29-1.75 2.58-3.5 3.88-5.25 1.38-1.91 2.76-3.83 4.12-5.75 0.379-0.53 0.758-1.06 1.15-1.61 14.6-20.6 24.1-43.2 32.2-67 0.334-0.975 0.668-1.95 1.01-2.95 2.78-8.39 4.57-16.8 5.18-25.6 0.331-4.77 0.331-4.77 1.44-5.88z" fill="#214D9B"/>
    <path transform="translate(971,405)" d="m0 0c3 1 3 1 4.34 3.31 4.51 10.6 7.92 21.5 11.2 32.6 0.969 3.21 1.95 6.41 2.93 9.62 5.08 16.6 9.98 33.4 12.7 50.6 0.162 1.01 0.324 2.02 0.491 3.05 1.38 8.95 2.21 17.8 2.26 26.8 0.00935 0.859 0.0187 1.72 0.0283 2.6 0.114 29.1-6.46 57.9-19.5 83.9-1.94 3.87-1.94 3.87-2.87 8.06-1 3.38-3.13 4.61-5.83 6.77-3.06 2.66-5.24 5.89-7.56 9.19-5.6 7.69-11.7 14.6-18.3 21.4-0.775 0.814-0.775 0.814-1.57 1.64-6.48 6.8-13.2 13-20.7 18.7-2.71 2.04-5.15 4.08-7.54 6.5-2.22 2.19-2.22 2.19-4.22 2.19 0.0938 1.93 0.0938 1.93 1 4 2.33 1.5 2.33 1.5 5.3 2.62 1.11 0.458 2.23 0.917 3.37 1.39 1.2 0.471 2.4 0.942 3.64 1.43 1.22 0.487 2.45 0.974 3.71 1.48 13.9 5.44 27.7 9.18 42.6 10.5 3.55 0.312 6.32 0.738 9.38 2.63-0.527 1.79-0.527 1.79-2 4-2.53 1.31-4.91 2.37-7.56 3.38-0.763 0.303-1.53 0.605-2.31 0.917-5.02 1.97-10.1 3.77-15.2 5.52-18.6 6.39-36.5 14.7-54.4 22.6-3.08 1.36-6.16 2.7-9.25 4.03-19.7 8.52-39.1 17.7-58.4 27.2-1.16 0.569-2.32 1.14-3.51 1.72-3.34 1.64-6.68 3.29-10 4.94-1.48 0.73-1.48 0.73-2.99 1.48-6.56 3.25-13 6.69-19.4 10.2-1.55 0.846-3.09 1.69-4.64 2.54-1.54 0.842-3.07 1.68-4.61 2.53-0.832 0.456-1.66 0.912-2.52 1.38-4.88 2.68-9.73 5.4-14.6 8.16-1.57 0.895-1.57 0.895-3.17 1.81-2.05 1.17-4.1 2.35-6.15 3.53-0.929 0.53-1.86 1.06-2.82 1.61-0.826 0.475-1.65 0.949-2.5 1.44-2.02 1.02-2.02 1.02-4.02 1.02v2c-0.958 0.522-1.92 1.04-2.9 1.58-10.3 5.69-20.3 11.9-30.1 18.4-0.839 0.554-1.68 1.11-2.54 1.68-1.38 0.914-2.75 1.83-4.12 2.75-1.86 1.25-3.74 2.49-5.61 3.73-14.1 9.3-27.8 18.9-41 29.5-1.77 1.41-3.56 2.8-5.35 4.18-7.06 5.47-13.8 11.1-20.4 17.2-1.71 1.54-3.41 3.09-5.12 4.62-0.745 0.673-1.49 1.35-2.26 2.04-1.43 1.27-2.86 2.54-4.31 3.78-5.56 4.76-10.8 9.86-15.9 15-1.44 1.45-2.89 2.89-4.34 4.33-5.23 5.22-10.3 10.5-15 16.2-0.808 0.938-1.62 1.88-2.45 2.84-26.7 31.7-50.1 67.8-63.6 107-0.313 0.905-0.626 1.81-0.949 2.74-7.24 21.1-13 42.5-13.3 64.9-0.0184 0.881-0.0368 1.76-0.0558 2.67-0.0778 3.73-0.146 7.45-0.215 11.2-0.052 2.74-0.109 5.48-0.167 8.21-0.0136 0.832-0.0272 1.66-0.0411 2.52-0.0991 4.69-0.474 9.18-1.24 13.8-2.04-1.69-2.92-2.64-3.51-5.26l-0.176-2.43c-0.0657-0.808-0.131-1.62-0.199-2.45l-0.113-1.86c-2.64 0.33-5.28 0.66-8 1-0.99-3.63-1.98-7.26-3-11h-2c-1.97-6.04-3.47-12-4.53-18.3-0.447-2.59-0.978-5.15-1.53-7.72-1.77-8.96-2.03-17.8-2.06-26.9-0.00467-0.925-0.00935-1.85-0.0142-2.8 0.00209-0.879 0.00419-1.76 0.00635-2.66 0.00113-0.789 0.00226-1.58 0.00342-2.39 0.129-2.19 0.596-4.08 1.13-6.21-0.0206-1.22-0.0412-2.43-0.0625-3.69-0.0571-3.86 0.642-7.23 1.56-11 0.523-2.44 0.79-4.8 1-7.29 0.462-5.13 1.4-10 2.5-15.1 0.267-1.29 0.534-2.57 0.809-3.89 5.63-26.7 14.7-52.1 25.3-77.2 0.29-0.683 0.579-1.37 0.877-2.07 3.62-8.5 7.4-16.9 11.3-25.3 1.51-3.23 3-6.47 4.46-9.72 7.91-17.5 7.91-17.5 12.1-25.1 26.4-47 26.4-47 29.2-99-1.19-2.47-2.47-4.58-4.09-6.78-0.469-0.697-0.938-1.39-1.42-2.11-2.36-3.16-3.92-4.66-7.7-5.95-4.36 0.0703-8.37 0.795-12.6 1.57-11.5 1.76-26.4 1.06-36.8-4.76-4.27-2.17-5.87-2.09-10.4-0.75-7.65 3.03-13.9 7.53-20 13-0.628 0.559-1.26 1.12-1.9 1.7-5.96 6.03-8.94 14-12.2 21.6-0.85 1.66-0.85 1.66-2.85 3.66-2.69 0.486-5.29 0.85-8 1.12-0.797 0.0835-1.59 0.167-2.41 0.253-14.6 1.41-29.5 2.62-42.3-5.53-4.61-3.81-7.06-9.06-8.24-14.8-0.0921-1.98-0.131-3.96-0.133-5.94l-0.00391-3.46c0.0058-1.78 0.0058-1.78 0.0117-3.6-0.00387-1.19-0.00773-2.38-0.0117-3.6 0.00129-1.14 0.00258-2.28 0.00391-3.46l0.00342-3.16c0.114-2.44 0.478-4.44 1.13-6.78-0.00531-1.46-0.0483-2.92-0.125-4.38-0.0142-4.33 0.51-7.03 3.12-10.6 3.26-2.59 6.92-4.43 10.6-6.36 21.3-11.3 37.9-28.4 45.4-51.6 0.418-1.71 0.823-3.41 1.21-5.12 2.26-9.19 4.25-15.8 12.6-21.1 3.51-1.95 7.07-3.77 10.7-5.53 3.79-1.93 7.27-4.24 10.8-6.61 1.37-0.898 2.74-1.79 4.12-2.69 1.09-0.708 1.09-0.708 2.2-1.43 4.91-3.17 9.86-6.28 14.8-9.38l2.99-1.89c5.68-3.56 11.4-6.9 17.3-10 2.46-1.3 2.46-1.3 5.29-3.26-0.556-4.42-1.69-7.78-3.69-11.8-2.61-5.5-4.79-11-6.75-16.8-0.271-0.774-0.542-1.55-0.821-2.34-1.26-3.8-1.96-6.27-0.741-10.1 4.94-1.57 9.07-0.136 14 1 1.33 0.259 1.33 0.259 2.69 0.523 15.3 3.28 29 10.5 41 20.5 0.655 0.539 1.31 1.08 1.99 1.63 1.29 1.07 2.57 2.15 3.84 3.24 5.55 4.62 10.9 6.53 18.3 6.02 5.04-0.116 9.37 0.952 14.2 2.29 2.88 0.733 5.66 1.15 8.61 1.52 27.4 4.36 53.3 21 73.4 39.2 1.14 1.01 2.27 2.03 3.41 3.04 6.92 6.23 13.8 12.7 19.6 20v2c2.6 1.13 2.6 1.13 6 1 5.24-3.35 9.14-8.21 13-13 1.12-1.14 2.24-2.27 3.38-3.39 2.03-2.01 4.04-4.04 6.05-6.07 1.67-1.68 3.34-3.35 5-5.03 0.833-0.842 1.67-1.68 2.53-2.55 4.2-4.22 8.43-8.18 13-11.9 1.69-1.64 3.36-3.31 5-5 5.13-5.21 10.3-10.3 15.8-15.1 2.78-2.42 5.49-4.91 8.2-7.41 3.23-2.98 6.48-5.94 9.81-8.81 4.63-4.01 9.08-8.23 13.5-12.4 3.59-3.36 7.21-6.68 10.9-9.95 4.49-4 8.72-8.24 12.9-12.5 2.14-2.09 4.28-4.04 6.54-5.99 5.01-4.35 9.68-9.02 14.4-13.7 0.859-0.855 1.72-1.71 2.6-2.59 4.99-4.99 9.76-10.1 14.3-15.5 0.936-1.08 1.87-2.16 2.81-3.24 5.75-6.7 11.1-13.6 16.2-20.8 1.29-1.75 2.58-3.5 3.88-5.25 1.38-1.91 2.76-3.83 4.12-5.75 0.379-0.53 0.758-1.06 1.15-1.61 14.6-20.6 24.1-43.2 32.2-67 0.334-0.975 0.668-1.95 1.01-2.95 2.78-8.39 4.57-16.8 5.18-25.6 0.331-4.77 0.331-4.77 1.44-5.88z" fill="#0F80C5"/>
    <path transform="translate(1187,790)" d="m0 0c0.33 0.66 0.66 1.32 1 2-1.02 2.48-2.1 4.81-3.31 7.19-0.363 0.715-0.726 1.43-1.1 2.17-3.96 7.62-8.6 14.7-13.6 21.6-0.475 0.666-0.95 1.33-1.44 2.02-6.64 9.23-13.7 17.8-21.6 26-0.469 0.495-0.937 0.989-1.42 1.5-7.09 7.47-14.6 13.9-22.8 20.2-1.69 1.3-3.33 2.63-4.97 3.99-23.7 19.5-51.6 34.2-80.1 45.3-2.39 0.931-4.76 1.89-7.14 2.86-24.4 9.7-50.7 16-76.5 20.2-1.67 0.274-1.67 0.274-3.37 0.553-19.3 3.12-38.6 4.67-58.1 5.75-0.8 0.0449-1.6 0.0898-2.43 0.136-2.06 0.112-4.12 0.213-6.18 0.313-2.86 0.0582-2.86 0.0582-4.93 1.25 1.47 3.77 3.32 5.13 6.75 7.19 0.984 0.601 1.97 1.2 2.98 1.82 1.08 0.657 2.16 1.31 3.27 1.99 1.76 1.12 3.51 2.26 5.27 3.4 2.9 1.88 5.82 3.74 8.73 5.6 0.807 0.525 1.61 1.05 2.45 1.59 7 4.4 14.5 7.79 22 11.3 4.24 1.97 8.42 4.04 12.6 6.15v2c0.99 0.33 1.98 0.66 3 1-1.7 0.0387-1.7 0.0387-3.44 0.0781-12.9 0.397-25.7 1.53-38.5 2.86-0.83 0.0854-1.66 0.171-2.51 0.259-10.5 1.09-21.1 2.33-31.5 3.8-1.83 0.245-1.83 0.245-3.69 0.496-3.41 0.458-3.41 0.458-7.06 1.5-3.07 0.802-5.97 1.18-9.12 1.4-6.89 0.592-13.6 1.88-20.4 3.23-0.668 0.132-1.34 0.263-2.02 0.399-4.91 0.97-9.82 1.97-14.7 2.98-1.29 0.266-2.58 0.532-3.91 0.806-42.7 8.92-83.7 22.5-123 41.2-1.4 0.661-1.4 0.661-2.84 1.33-35.7 16.9-68.5 39.3-97.4 66.2-2.29 2.1-4.61 4.16-6.96 6.18-6.88 6-12.8 12.5-18.5 19.6-1.99 2.43-4.04 4.77-6.15 7.09-8.04 8.96-15 18.8-21.9 28.6-0.703 0.989-1.41 1.98-2.13 3-0.822 1.19-0.822 1.19-1.66 2.4-0.442 0.527-0.884 1.05-1.34 1.6h-2c-0.33-0.66-0.66-1.32-1-2h-1c-0.329-4.39 0.439-7.51 2.09-11.6 1.1-2.96 1.9-5.95 2.72-9 1.84-6.63 4.25-12.8 6.92-19.2 1.08-2.8 1.81-5.32 2.27-8.28h2c0.186-1.18 0.371-2.35 0.562-3.56 5.06-22.3 21.5-45.4 34-64.1 0.686-1.03 1.37-2.06 2.08-3.13 5.85-8.67 12.2-16.8 19.1-24.6 1.08-1.28 2.08-2.63 3.06-3.99 0.613-0.766 0.613-0.766 1.24-1.55h2v-2h2c0.215-0.539 0.429-1.08 0.65-1.63 1.83-3.22 4.34-5.64 6.94-8.23 0.547-0.549 1.09-1.1 1.66-1.66 1.15-1.16 2.31-2.31 3.47-3.46 1.78-1.77 3.55-3.55 5.31-5.33 1.12-1.12 2.25-2.24 3.37-3.36 0.53-0.534 1.06-1.07 1.61-1.62 3.76-3.71 3.76-3.71 5.99-3.71 0.33-0.99 0.66-1.98 1-3 1.37-1.35 1.37-1.35 3.09-2.7 0.619-0.487 1.24-0.973 1.88-1.47l1.97-1.51 1.96-1.55c4.84-3.76 4.84-3.76 7.1-3.76v-2c1.8-1.38 3.67-2.68 5.56-3.94 5.12-3.44 10.1-7.01 15.1-10.7 5.96-4.41 12-8.5 18.4-12.4 1-0.623 2.01-1.25 3.04-1.89 5.88-3.64 11.8-7.23 17.7-10.8 0.884-0.534 0.884-0.534 1.79-1.08 27.8-16.7 57.5-29.9 87.5-42.2 0.764-0.317 1.53-0.634 2.32-0.96 14.6-6.05 29.6-11.1 44.7-16 1.4-0.468 2.8-0.937 4.21-1.41 16.3-5.43 32.6-10.5 49.2-14.9 2.57-0.677 5.13-1.37 7.7-2.06 9.25-2.49 18.5-4.74 27.9-6.62 1.57-0.321 3.14-0.643 4.71-0.965 9.01-1.83 18-3.58 27.1-5.08 3.71-0.606 3.71-0.606 7.2-1.95-3.13-2.09-5.51-2.83-9.12-3.81-1.24-0.344-2.48-0.688-3.76-1.04-0.664-0.184-1.33-0.367-2.01-0.556-3.71-1.04-7.41-2.13-11.1-3.21-0.705-0.206-1.41-0.412-2.14-0.624-3.98-1.17-7.93-2.41-11.9-3.75-0.703-0.236-1.41-0.472-2.13-0.715-25.6-8.63-25.6-8.63-30.9-12.3-0.832-2.68-0.832-2.68-1-5 6.27-2.23 12.5-3.87 19-5.32 3.37-0.77 6.67-1.72 10-2.68 1.96-0.483 3.92-0.962 5.88-1.44 4.42-1.09 8.68-2.38 13-3.88 2.87-0.912 5.76-1.51 8.71-2.06 2.83-0.726 5.51-1.75 8.23-2.79 3.79-1.43 7.62-2.73 11.5-4.02 0.789-0.273 1.58-0.545 2.39-0.826 1.14-0.386 1.14-0.386 2.31-0.779 0.682-0.232 1.36-0.465 2.07-0.704 1.98-0.503 1.98-0.503 5.98-0.503v-2c3.7-1.49 7.41-2.96 11.1-4.44 1.05-0.421 2.09-0.842 3.17-1.28 1.02-0.403 2.04-0.806 3.09-1.22 0.932-0.372 1.86-0.744 2.82-1.13 6.19-2.08 10.3-1.84 16.4 0.31 1.43 0.475 2.86 0.948 4.29 1.42 0.698 0.231 1.4 0.462 2.11 0.701 3.6 1.15 7.27 2.01 10.9 2.89 2.16 0.531 4.3 1.11 6.44 1.71 8.84 2.5 17.6 4.11 26.7 5.42 3.92 0.613 3.92 0.613 6.92 1.61 4.32 0.206 8.65 0.186 13 0.185 2.12 0.00217 4.24 0.0203 6.36 0.0393 6.41 0.0267 12.5-0.0626 18.7-1.72 2-0.516 3.93-0.821 5.98-1.08 11.6-1.47 23-3.85 34.4-6.43 0.781-0.173 1.56-0.347 2.37-0.525 2.25-0.502 4.5-1.02 6.75-1.54 0.676-0.15 1.35-0.3 2.05-0.455 3.96-0.935 6.98-2.29 10.4-4.48 2.81-0.688 2.81-0.688 5-1z" fill="#F7C401"/>
    <path transform="translate(971,405)" d="m0 0c3 1 3 1 4.34 3.31 4.51 10.6 7.92 21.5 11.2 32.6 0.969 3.21 1.95 6.41 2.93 9.62 5.08 16.6 9.98 33.4 12.7 50.6 0.162 1.01 0.324 2.02 0.491 3.05 1.38 8.95 2.21 17.8 2.26 26.8 0.00935 0.859 0.0187 1.72 0.0283 2.6 0.114 29.1-6.46 57.9-19.5 83.9-1.94 3.87-1.94 3.87-2.87 8.06-1 3.38-3.13 4.61-5.83 6.77-3.06 2.66-5.24 5.89-7.56 9.19-5.6 7.69-11.7 14.6-18.3 21.4-0.775 0.814-0.775 0.814-1.57 1.64-6.48 6.8-13.2 13-20.7 18.7-2.71 2.04-5.15 4.08-7.54 6.5-2.22 2.19-2.22 2.19-4.22 2.19 0.0938 1.93 0.0938 1.93 1 4 2.33 1.5 2.33 1.5 5.3 2.62 1.11 0.458 2.23 0.917 3.37 1.39 1.2 0.471 2.4 0.942 3.64 1.43 1.22 0.487 2.45 0.974 3.71 1.48 13.9 5.44 27.7 9.18 42.6 10.5 3.55 0.312 6.32 0.738 9.38 2.63-0.527 1.79-0.527 1.79-2 4-2.53 1.31-4.91 2.37-7.56 3.38-0.763 0.303-1.53 0.605-2.31 0.917-5.02 1.97-10.1 3.77-15.2 5.52-18.6 6.39-36.5 14.7-54.4 22.6-3.08 1.36-6.16 2.7-9.25 4.03-19.7 8.52-39.1 17.7-58.4 27.2-1.16 0.569-2.32 1.14-3.51 1.72-3.34 1.64-6.68 3.29-10 4.94-1.48 0.73-1.48 0.73-2.99 1.48-6.56 3.25-13 6.69-19.4 10.2-1.55 0.846-3.09 1.69-4.64 2.54-1.54 0.842-3.07 1.68-4.61 2.53-0.832 0.455-1.66 0.911-2.52 1.38-4.88 2.68-9.74 5.41-14.6 8.19-1.05 0.601-2.1 1.2-3.17 1.82-2.05 1.18-4.1 2.37-6.15 3.56-0.929 0.534-1.86 1.07-2.82 1.62-1.24 0.72-1.24 0.72-2.5 1.45-0.667 0.299-1.33 0.597-2.02 0.905-0.66-0.33-1.32-0.66-2-1 0.33-0.66 0.66-1.32 1-2h-2l-1-3c1.32-0.33 2.64-0.66 4-1 0.943-3.26 0.943-3.26 1-7-1.89-2.09-1.89-2.09-3.46-3.37-5.65-5.98-8.22-14.7-9.54-22.6h-2c-0.598-1.09-1.2-2.19-1.81-3.31-1.48-2.6-2.89-4.73-5.19-6.69 3-1 3-1 5.19-0.0625 0.598 0.351 1.2 0.701 1.81 1.06-0.716-2.02-0.716-2.02-2-4-1.33-0.344-2.66-0.676-4-1-1.45-0.804-2.86-1.66-4.25-2.56-0.706-0.455-1.41-0.91-2.14-1.38-0.531-0.349-1.06-0.699-1.61-1.06-0.33 0.99-0.66 1.98-1 3-1.05-0.639-2.1-1.28-3.19-1.94-2.92-1.68-5.43-2.65-8.81-3.06 0.99-0.66 1.98-1.32 3-2-3.67-2.45-5.67-2.08-10-2-3-1-3-1-4.31-2.79-0.694-2.21-0.694-2.21-0.0571-4.34 0.418-0.761 0.835-1.52 1.27-2.31 0.706-1.3 0.706-1.3 1.43-2.63 0.531-0.93 1.06-1.86 1.61-2.82 0.811-1.45 0.811-1.45 1.64-2.93 8.14-14.3 17.5-28 27.9-40.8 1.79-2.83 2.2-5.13 2.54-8.44 0.898-0.0812 1.8-0.162 2.72-0.246 3.82-0.879 5.07-1.99 7.71-4.82 0.7-0.733 1.4-1.47 2.12-2.22 1.33-1.48 2.65-2.96 3.95-4.47 4.78-5.56 9.86-10.8 15.1-15.9 0.824-0.828 1.65-1.66 2.5-2.51 6.71-6.7 6.71-6.7 10.2-9.57 2.76-2.26 5.23-4.67 7.72-7.23 5.13-5.21 10.3-10.3 15.8-15.1 2.78-2.42 5.49-4.91 8.2-7.41 3.23-2.98 6.48-5.94 9.81-8.81 4.63-4.01 9.08-8.23 13.5-12.4 3.59-3.36 7.21-6.68 10.9-9.95 4.49-4 8.72-8.24 12.9-12.5 2.14-2.09 4.28-4.04 6.54-5.99 5.01-4.35 9.68-9.02 14.4-13.7 0.859-0.855 1.72-1.71 2.6-2.59 4.99-4.99 9.76-10.1 14.3-15.5 0.936-1.08 1.87-2.16 2.81-3.24 5.75-6.7 11.1-13.6 16.2-20.8 1.29-1.75 2.58-3.5 3.88-5.25 1.38-1.91 2.76-3.83 4.12-5.75 0.379-0.53 0.758-1.06 1.15-1.61 14.6-20.6 24.1-43.2 32.2-67 0.334-0.975 0.668-1.95 1.01-2.95 2.78-8.39 4.57-16.8 5.18-25.6 0.331-4.77 0.331-4.77 1.44-5.88z" fill="#0699DA"/>
    <path transform="translate(540,642)" d="m0 0c0.33 0.99 0.66 1.98 1 3-5.75 4-5.75 4-8 4 0.309 1.05 0.309 1.05 0.625 2.12 0.455 3.49-0.523 5.57-1.62 8.88 0.334 4.35 2.24 8.05 4 12 1.28 3.85 1.07 6.95 1 11h5c0.99 2.97 0.99 2.97 2 6 1.98-0.99 1.98-0.99 4-2 1.18 4.62 1.11 9.08 1.06 13.8-0.00451 0.788-0.00902 1.58-0.0137 2.39-0.0117 1.93-0.0296 3.87-0.0488 5.8-0.99-1.32-1.98-2.64-3-4-1.2 5.23-0.853 8.07 1.24 13 0.772 2.07 1.06 3.84 1.26 6.04 0.274 2.92 0.895 5.28 2 8 2.03 5.06 3.49 10.7 1.5 16-2.8-4.96-3.97-9.67-5.06-15.2-0.318-1.6-0.642-3.2-0.973-4.79-0.138-0.7-0.276-1.4-0.418-2.12-0.53-2.2-0.53-2.2-2.55-4.9 0.31 1.77 0.623 3.54 0.938 5.31 0.174 0.986 0.348 1.97 0.527 2.99 0.493 2.78 0.493 2.78 1.54 5.7 2.05 7.99 3 15.8 3 24h2v2h2v3h3c0.33-0.66 0.66-1.32 1-2v2h2c0.371-0.959 0.371-0.959 0.75-1.94 1.25-2.06 1.25-2.06 3.12-2.94 2.6-0.153 3.93 0.54 6.12 1.88v2c0.99 0.33 1.98 0.66 3 1-0.33 1.98-0.66 3.96-1 6h6c0.826 2.89 1 4.89 1 8h5v-3h2v-2h2c0.271-0.55 0.541-1.1 0.82-1.67 0.82-1.62 1.67-3.23 2.55-4.82 3.68-6.89 5.9-13.4 7.68-21 1.03-3.81 2.18-7.03 3.96-10.5 0.99-0.33 1.98-0.66 3-1 0.326 0.857 0.652 1.71 0.988 2.6 2.68 7.1 2.68 7.1 5.64 14.1 1.8 4.35 3.09 8.79 4.38 13.3 0.351 1.09 0.701 2.18 1.06 3.31 5.07 20-2.49 43.6-11.1 61.7-0.563 1.19-1.13 2.38-1.71 3.61-0.617 1.28-1.24 2.55-1.86 3.83-0.293 0.616-0.586 1.23-0.888 1.87-1.59 3.21-2.49 4.66-5.55 6.7-0.719 1.73-1.44 3.46-2.13 5.2-1.7 3.53-4.66 5.86-7.71 8.23-4.04 3.11-4.04 3.11-6.03 7.7-0.0412 0.949-0.0825 1.9-0.125 2.88-0.317 1.34-0.643 2.67-1 4-0.66-0.66-1.32-1.32-2-2v2c0.99 0.66 1.98 1.32 3 2 0.223 2.69 0.223 2.69 0.0625 6-0.172 7.06 0.708 13.3 2.94 20h2c1.33 4.67 2.67 9.33 4 14h2c0.33 1.65 0.66 3.3 1 5h2v2h2c2.91 2.22 3.9 3.52 4.68 7.14 0.774 14.1-1.63 21.4-10.6 32.1-24.9 30.3-46.4 64.6-59.1 102-0.313 0.905-0.626 1.81-0.949 2.74-7.24 21.1-13 42.5-13.3 64.9-0.0184 0.881-0.0368 1.76-0.0558 2.67-0.0778 3.73-0.146 7.45-0.215 11.2-0.052 2.74-0.109 5.48-0.167 8.21-0.0136 0.832-0.0272 1.66-0.0411 2.52-0.0991 4.69-0.474 9.18-1.24 13.8-2.04-1.69-2.92-2.64-3.51-5.26-0.058-0.801-0.116-1.6-0.176-2.43-0.0657-0.808-0.131-1.62-0.199-2.45-0.0561-0.922-0.0561-0.922-0.113-1.86-2.64 0.33-5.28 0.66-8 1-0.99-3.63-1.98-7.26-3-11h-2c-1.97-6.04-3.47-12-4.53-18.3-0.447-2.59-0.978-5.15-1.53-7.72-1.77-8.96-2.03-17.8-2.06-26.9-0.00467-0.925-0.00935-1.85-0.0142-2.8 0.00209-0.879 0.00419-1.76 0.00635-2.66 0.00113-0.789 0.00226-1.58 0.00342-2.39 0.129-2.19 0.596-4.08 1.13-6.21-0.0206-1.22-0.0412-2.43-0.0625-3.69-0.0571-3.86 0.642-7.23 1.56-11 0.523-2.44 0.79-4.8 1-7.29 0.462-5.13 1.4-10 2.5-15.1 0.267-1.29 0.534-2.57 0.809-3.89 5.63-26.7 14.7-52.1 25.3-77.2 0.29-0.683 0.579-1.37 0.877-2.07 3.62-8.5 7.4-16.9 11.3-25.3 1.51-3.23 3-6.47 4.46-9.72 7.91-17.5 7.91-17.5 12.1-25.1 26.4-47 26.4-47 29.2-99-1.19-2.47-2.47-4.58-4.09-6.78-0.469-0.697-0.938-1.39-1.42-2.11-2.36-3.16-3.92-4.66-7.7-5.95-4.36 0.0703-8.37 0.795-12.6 1.57-11.5 1.76-26.4 1.06-36.8-4.76-4.27-2.17-5.87-2.09-10.4-0.75-7.65 3.03-13.9 7.53-20 13-0.628 0.559-1.26 1.12-1.9 1.7-5.96 6.03-8.94 14-12.2 21.6-0.85 1.66-0.85 1.66-2.85 3.66-2.69 0.486-5.29 0.85-8 1.12-0.797 0.0835-1.59 0.167-2.41 0.253-14.6 1.41-29.5 2.62-42.3-5.53-4.61-3.81-7.06-9.06-8.24-14.8-0.0921-1.98-0.131-3.96-0.133-5.94-0.00129-1.14-0.00258-2.28-0.00391-3.46 0.00387-1.19 0.00773-2.38 0.0117-3.6-0.00387-1.19-0.00773-2.38-0.0117-3.6 0.00129-1.14 0.00258-2.28 0.00391-3.46 0.00113-1.04 0.00226-2.09 0.00342-3.16 0.114-2.44 0.478-4.44 1.13-6.78-0.00531-1.46-0.0483-2.92-0.125-4.38-0.0142-4.33 0.51-7.03 3.12-10.6 3.26-2.59 6.92-4.43 10.6-6.36 21.3-11.3 37.9-28.4 45.4-51.6 0.418-1.71 0.823-3.41 1.21-5.12 2.26-9.19 4.25-15.8 12.6-21.1 3.51-1.95 7.07-3.77 10.7-5.53 3.79-1.93 7.27-4.24 10.8-6.61 1.36-0.889 2.72-1.78 4.09-2.66 0.724-0.471 1.45-0.941 2.19-1.43 5.1-3.31 10.2-6.59 15.3-9.85 1.05-0.681 2.11-1.36 3.19-2.06 0.986-0.624 1.97-1.25 2.99-1.89 0.882-0.564 1.76-1.13 2.67-1.71 2.27-1.09 2.27-1.09 5.27-0.0889z" fill="#1866B0"/>
    <path transform="translate(926,870)" d="m0 0c1.12 3.75 1.12 3.75 0 6 1.65 0.66 3.3 1.32 5 2-0.0206 1.09-0.0412 2.19-0.0625 3.31-0.123 3.63-0.123 3.63 1.06 6.69h-5c0.0348 0.592 0.0696 1.18 0.105 1.79 0.167 4.87 0.27 8.37-3.11 12.2-2.62 1.25-2.62 1.25-5 2-0.33 0.33-0.66 0.66-1 1-3.3 0.449-6.61 0.819-9.92 1.16-3.03 0.343-5.76 0.709-8.6 1.86-2.75 1.08-5.27 1.3-8.2 1.51-10 0.728-17.5 3.78-26.3 8.47-1.64 0.817-3.29 1.63-4.94 2.44-1.52 0.773-1.52 0.773-3.06 1.56h3c0.201 3.63-0.142 5.87-2 9l2 1c-0.312 1.94-0.312 1.94-1 4-1.49 0.495-1.49 0.495-3 1 0.33 0.99 0.66 1.98 1 3 0.563 6-0.0207 11.1-2.13 16.7-0.972 2.6-1.77 5.22-2.55 7.88-0.251 0.847-0.503 1.69-0.762 2.57-0.182 0.617-0.364 1.23-0.551 1.87l2 1c-1.88 7.75-1.88 7.75-3 10-1.98 0.727-3.98 1.4-6 2 0.33 0.763 0.66 1.53 1 2.31 1 2.69 1 2.69 1 5.69l2 1c0.625 2.06 0.625 2.06 1 4h3c1.12 3.75 1.12 3.75 0 6h2v2h-5v2c-0.928 0.175-1.86 0.351-2.81 0.531-55.6 10.5-109 24.2-160 48.5-0.936 0.441-1.87 0.881-2.84 1.33-35.7 16.9-68.5 39.3-97.4 66.2-2.29 2.1-4.61 4.16-6.96 6.18-6.88 6-12.8 12.5-18.5 19.6-1.99 2.43-4.04 4.77-6.15 7.09-8.04 8.96-15 18.8-21.9 28.6-0.703 0.989-1.41 1.98-2.13 3-0.822 1.19-0.822 1.19-1.66 2.4-0.442 0.527-0.884 1.05-1.34 1.6h-2c-0.33-0.66-0.66-1.32-1-2h-1c-0.329-4.39 0.439-7.51 2.09-11.6 1.1-2.96 1.9-5.95 2.72-9 1.84-6.63 4.25-12.8 6.92-19.2 1.08-2.8 1.81-5.32 2.27-8.28h2c0.186-1.18 0.371-2.35 0.562-3.56 5.06-22.3 21.5-45.4 34-64.1 0.686-1.03 1.37-2.06 2.08-3.13 5.85-8.67 12.2-16.8 19.1-24.6 1.08-1.28 2.08-2.63 3.06-3.99 0.613-0.766 0.613-0.766 1.24-1.55h2v-2h2c0.215-0.539 0.429-1.08 0.65-1.63 1.83-3.22 4.34-5.64 6.94-8.23 0.547-0.549 1.09-1.1 1.66-1.66 1.15-1.16 2.31-2.31 3.47-3.46 1.78-1.77 3.55-3.55 5.31-5.33 1.12-1.12 2.25-2.24 3.37-3.36 0.53-0.534 1.06-1.07 1.61-1.62 3.76-3.71 3.76-3.71 5.99-3.71 0.33-0.99 0.66-1.98 1-3 1.37-1.35 1.37-1.35 3.09-2.7 0.619-0.487 1.24-0.973 1.88-1.47 0.975-0.749 0.975-0.749 1.97-1.51 0.646-0.511 1.29-1.02 1.96-1.55 4.84-3.76 4.84-3.76 7.1-3.76v-2c1.8-1.38 3.67-2.68 5.56-3.94 5.12-3.44 10.1-7.01 15.1-10.7 5.96-4.41 12-8.5 18.4-12.4 1-0.623 2.01-1.25 3.04-1.89 5.88-3.64 11.8-7.23 17.7-10.8 0.884-0.534 0.884-0.534 1.79-1.08 27.8-16.7 57.5-29.9 87.5-42.2 0.764-0.317 1.53-0.634 2.32-0.96 14.6-6.05 29.6-11.1 44.7-16 1.4-0.468 2.8-0.937 4.21-1.41 16.3-5.42 32.6-10.5 49.2-14.9 2.68-0.709 5.34-1.44 8.01-2.18 1.71-0.465 3.41-0.93 5.12-1.39 0.771-0.216 1.54-0.431 2.34-0.653 4.16-1.12 7.81-1.71 12.2-1.47z" fill="#EEBE01"/>
    <path transform="translate(1150,551)" d="m0 0 2 1c0.245 8.82-0.461 17.3-1.69 26-0.271 1.96-0.271 1.96-0.548 3.95-5.16 36.7-12.5 74.2-31 107-1.74 3.07-3.28 6.18-4.8 9.36-5.58 11.2-13.3 21-21 30.8-0.99-0.33-1.98-0.66-3-1 0.33-2.31 0.66-4.62 1-7 0.99-0.33 1.98-0.66 3-1v-8h-3v2h-2c-2.46-3.69-2-4.83-1.44-9.12 0.522-5.34 0.148-8.88-1.86-13.8-1.14-3.38-0.825-6.54-0.699-10.1-0.33-0.33-0.66-0.66-1-1-0.66 0.99-1.32 1.98-2 3-2.78-4.95-5.51-9.9-8-15-0.949 0.66-1.9 1.32-2.88 2-3.12 2-3.12 2-5.12 2-0.495 1.49-0.495 1.49-1 3-3.07 2.4-6.47 4.31-9.81 6.31-0.916 0.576-1.83 1.15-2.78 1.74-0.885 0.534-1.77 1.07-2.68 1.62-0.811 0.494-1.62 0.988-2.46 1.5-2.27 0.827-2.27 0.827-4.47 0.051-4.94-3.35-7.67-6.69-9.78-12.3-3.58-6.73-10.3-11.6-17-14.9v3h-2c-0.495-2.97-0.495-2.97-1-6h-2v-2h-4c0.186 0.619 0.371 1.24 0.562 1.88 0.438 2.12 0.438 2.12-0.562 4.12 0.66 0.33 1.32 0.66 2 1h-2c-0.495 0.99-0.495 0.99-1 2v-3c-0.99-0.33-1.98-0.66-3-1 0.324-5.29 1.45-8.1 4.68-12.3 1.62-2.14 2.92-4.43 4.21-6.78 0.857-1.51 1.77-2.98 2.7-4.45 0.55-0.87 1.1-1.74 1.67-2.64 0.521-0.807 1.04-1.61 1.58-2.45 1.32-2.74 1.39-4.43 1.17-7.43v-3c1.2-0.352 2.4-0.704 3.64-1.07 25.8-7.54 25.8-7.54 50.5-18 1.97-0.962 3.96-1.87 5.97-2.78 16.4-7.41 31.3-16.7 45.9-27.1 0.685-0.487 1.37-0.974 2.07-1.48 2.04-1.46 4.08-2.93 6.11-4.4 0.918-0.66 0.918-0.66 1.85-1.33 3.64-2.67 6.81-5.54 9.96-8.79 1.65-1.36 3.31-2.7 5-4z" fill="#1866B0"/>
    <path transform="translate(1187,790)" d="m0 0c0.33 0.66 0.66 1.32 1 2-1.02 2.48-2.1 4.81-3.31 7.19-0.545 1.07-0.545 1.07-1.1 2.17-3.96 7.62-8.6 14.7-13.6 21.6-0.475 0.666-0.95 1.33-1.44 2.02-6.64 9.23-13.7 17.8-21.6 26-0.469 0.495-0.937 0.989-1.42 1.5-7.08 7.46-14.6 13.9-22.8 20.1-1.81 1.39-3.59 2.8-5.37 4.22-20.2 16.1-20.2 16.1-24.4 16.1-0.289-0.784-0.578-1.57-0.875-2.38-0.974-2.72-0.974-2.72-3.12-4.62-0.125-3.12-0.125-3.12 0-6-0.99-0.33-1.98-0.66-3-1 0.875-6.75 0.875-6.75 2-9l-2-2c-0.33 0.66-0.66 1.32-1 2-2.38 0.75-2.38 0.75-5 1-0.99-0.66-1.98-1.32-3-2 0.66-0.66 1.32-1.32 2-2 0.648-2.57 0.648-2.57 1-5 0.99-0.33 1.98-0.66 3-1h-3v-10c-4.17-1.15-6.91-0.726-11.1 0.375-6.13 1.37-12.2 2.28-18.4 2.81-1.27 0.154-1.27 0.154-2.57 0.312-2.55 0.174-4.47 0.192-6.93-0.5-4.4-3.91-6.25-8.48-8-14-0.99-0.33-1.98-0.66-3-1-0.125-3.38-0.125-3.38 0-7 0.66-0.66 1.32-1.32 2-2h-2c-0.495-1.49-0.495-1.49-1-3 1.65-0.66 3.3-1.32 5-2 0.33-2.31 0.66-4.62 1-7h2c0.33-0.99 0.66-1.98 1-3-0.99-0.33-1.98-0.66-3-1 0.66-1.32 1.32-2.64 2-4h2c0.33-0.99 0.66-1.98 1-3h3c0.144-0.784 0.289-1.57 0.438-2.38 0.562-2.62 0.562-2.62 1.56-4.62 9.75 1.54 19.6 3.15 29.1 5.53 7.1 1.66 14.1 1.78 21.4 1.73 2.06-0.0107 4.12-3.69e-5 6.17 0.0127 6.29 0.00655 12.2-0.158 18.4-1.77 2-0.511 3.95-0.818 6-1.07 11.6-1.47 23-3.85 34.4-6.43 0.781-0.173 1.56-0.347 2.37-0.525 2.25-0.502 4.5-1.02 6.75-1.54 0.676-0.15 1.35-0.3 2.05-0.455 3.96-0.935 6.98-2.29 10.4-4.48 2.81-0.688 2.81-0.688 5-1z" fill="#FFCA00"/>
    <path transform="translate(717,669)" d="m0 0c8.66 6.08 16.6 13.5 23 22v2h2c0.688 1.62 0.688 1.62 1 4-1.94 4.52-4.5 8.11-7.56 11.9-11.6 14.8-24.5 32.3-30.4 50.1h-2v5h-2c-0.115 0.679-0.229 1.36-0.348 2.06-0.766 3.46-1.89 6.67-3.09 10-0.648 1.81-0.648 1.81-1.31 3.66-0.968 2.53-1.98 4.89-3.25 7.28-2.06-3.09-2.36-4.34-2.75-7.92-0.113-0.994-0.226-1.99-0.343-3.01-0.115-1.08-0.23-2.15-0.348-3.26-0.263-2.3-0.526-4.6-0.789-6.9-0.258-2.3-0.516-4.61-0.773-6.91-0.424-3.77-0.86-7.54-1.31-11.3-0.111-0.939-0.222-1.88-0.336-2.85-0.805-6.45-1.86-12.8-3.02-19.2-0.294-1.65-0.588-3.29-0.882-4.94-0.582-3.26-1.2-6.51-1.82-9.75-0.272-1.5-0.543-3.01-0.813-4.51-0.142-0.691-0.285-1.38-0.431-2.09-0.336-1.95-0.336-1.95-0.385-5.33 1.95-2.46 1.95-2.46 4-4 0.66 0.33 1.32 0.66 2 1 0.0619-0.619 0.124-1.24 0.188-1.88 0.812-2.12 0.812-2.12 3-3.12 0.928-0.33 1.86-0.66 2.81-1 2.02-1.3 4.03-2.62 6-4-0.66-0.33-1.32-0.66-2-1 1.23-3.69 2.85-4.31 6.17-6.09 2.23-1.1 4.51-2.01 6.83-2.91 3.22-1.36 3.22-1.36 6-3 0.33-0.99 0.66-1.98 1-3 0.66-0.33 1.32-0.66 2-1z" fill="#1866B0"/>
    <path transform="translate(988,801)" d="m0 0 2 1c-0.33 1.65-0.66 3.3-1 5h-2c-0.289 1.13-0.577 2.27-0.875 3.44-0.557 1.76-0.557 1.76-1.12 3.56-0.66 0.33-1.32 0.66-2 1-0.33 0.99-0.66 1.98-1 3-1.65 0.33-3.3 0.66-5 1v3c0.784-0.516 1.57-1.03 2.38-1.56 0.866-0.474 1.73-0.949 2.62-1.44 0.66 0.33 1.32 0.66 2 1-0.33 1.32-0.66 2.64-1 4h-6c0.959 2.33 0.959 2.33 4 4-1.24 1.18-1.24 1.18-2.5 2.38-2.73 2.26-2.73 2.26-2.5 4.62-1.03 0.268-2.06 0.536-3.12 0.812-4.73 1.35-8.78 3.46-12.9 6.19-3.69-0.375-3.69-0.375-7-1v2h-2c0.33 0.99 0.66 1.98 1 3l-4 1v2l2 1c-1.71-0.286-3.42-0.579-5.12-0.875-0.951-0.162-1.9-0.325-2.88-0.492-3.12-0.66-5.98-1.58-8.99-2.63-1.5-0.506-3-1.01-4.5-1.52-23.5-8-23.5-8-28.5-11.5-0.832-2.68-0.832-2.68-1-5 6.27-2.23 12.5-3.87 19-5.32 3.37-0.77 6.67-1.72 10-2.68 1.96-0.483 3.92-0.962 5.88-1.44 4.42-1.09 8.68-2.38 13-3.88 2.87-0.912 5.76-1.51 8.71-2.06 2.83-0.726 5.51-1.75 8.23-2.79 3.79-1.43 7.62-2.73 11.5-4.02 0.789-0.273 1.58-0.545 2.39-0.826 1.14-0.386 1.14-0.386 2.31-0.779 0.682-0.232 1.36-0.465 2.07-0.704 1.98-0.503 1.98-0.503 5.98-0.503v-2z" fill="#DCB101"/>
    <path transform="translate(1141,559)" d="m0 0c1.32 1.32 2.64 2.64 4 4-0.33 0.99-0.66 1.98-1 3l2 1c-0.461 0.911-0.923 1.82-1.4 2.76-0.659 1.31-1.32 2.62-1.98 3.93-0.356 0.707-0.712 1.41-1.08 2.14-2.06 4.13-4.07 8.27-6.02 12.5-7.23 15.5-15 31.7-27.5 43.7-0.33-1.98-0.66-3.96-1-6-1.48 0.495-1.48 0.495-3 1v6c-0.66-0.33-1.32-0.66-2-1v-3h-2c-0.99-4.29-1.98-8.58-3-13-1.32-0.33-2.64-0.66-4-1-1.62-2.38-1.62-2.38-3-5-0.66-0.99-1.32-1.98-2-3-0.165-0.866-0.33-1.73-0.5-2.62-0.165-0.784-0.33-1.57-0.5-2.38-0.66-0.33-1.32-0.66-2-1v-2c-0.495-1.49-0.495-1.49-1-3 0.669-0.352 1.34-0.704 2.03-1.07 3.1-1.64 6.19-3.28 9.28-4.93 1.05-0.553 2.11-1.11 3.19-1.68 6.32-3.38 12.1-7.06 17.9-11.4 4.92-3.67 10.1-7.04 15.2-10.5 1.2-0.811 1.2-0.811 2.42-1.64 0.71-0.478 1.42-0.956 2.15-1.45 1.82-1.34 3.36-2.76 4.91-4.41z" fill="#0F80C5"/>
    <path transform="translate(572,599)" d="m0 0c-0.33 0.99-0.66 1.98-1 3h-3c0.33 0.99 0.66 1.98 1 3-0.33 0.66-0.66 1.32-1 2 1.32-0.33 2.64-0.66 4-1-0.202 0.592-0.405 1.18-0.613 1.79-0.718 2.46-1.25 4.65-1.39 7.21 2.15 2.9 2.15 2.9 5 5 0.667 1.33 1.33 2.67 2 4 1.63 1.71 3.29 3.38 5 5 1 1 1 1 1.25 4.38-0.25 3.62-0.25 3.62-1.31 5.5-3.03 1.76-5.45 2.01-8.94 2.12-2.54-0.757-4.62-1.78-7-3-2.7-1.35-5.12-1.34-8.12-1.56-1.1-0.0838-2.19-0.168-3.32-0.254-1.26-0.0909-1.26-0.0909-2.55-0.184-0.206-1.22-0.413-2.43-0.625-3.69-0.895-4.06-2.31-7.51-4.12-11.2-2.6-5.44-4.75-10.9-6.69-16.6-0.271-0.774-0.542-1.55-0.821-2.35-2.19-6.59-2.19-6.59-0.741-10.1 9.26-3.09 24.4 2.91 33 7z" fill="#1866B0"/>
    <path transform="translate(1140,570)" d="m0 0c0.99 0.33 1.98 0.66 3 1-2.31 5.61-4.62 11.2-7 17-0.33-1.32-0.66-2.64-1-4-1.98-1.28-1.98-1.28-4-2 2.02-4.58 4.32-7.61 8-11 0.33-0.33 0.66-0.66 1-1z" fill="#0699DA"/>
    <path transform="translate(729,766)" d="m0 0c4.02 1.38 6.73 3.33 10 6 0.99 0.33 1.98 0.66 3 1 1.69 2.06 1.69 2.06 3 4-0.33 0.66-0.66 1.32-1 2-0.536-0.495-1.07-0.99-1.62-1.5-2.33-1.79-2.33-1.79-5.38-1.38-3-0.125-3-0.125-5.31-2.31-1.64-2.73-2.33-4.68-2.69-7.81z" fill="#0699DA"/>
    <path transform="translate(581,874)" d="m0 0 2 1v13h2c1.33 3.98 1.07 7.85 1 12-2.97-2.3-3.93-3.67-4.75-7.38-0.506-6.18-0.328-12.4-0.25-18.6z" fill="#1866B0"/>
    <path transform="translate(849,964)" d="m0 0c1.1 3.3 1.36 5.54 1 9-1.94 1.69-1.94 1.69-4 3-0.33 0.99-0.66 1.98-1 3h-5v-4c0.742-0.144 1.49-0.289 2.25-0.438 4.19-2.38 5.13-6.18 6.75-10.6z" fill="#F7C401"/>
    <path transform="translate(1086,680)" d="m0 0c2.49 2.49 2.33 3.61 2.56 7.06-0.0227 3.28-0.0227 3.28 1.44 5.94 0.0409 2.33 0.0424 4.67 0 7-3.46-3.93-5.12-8.17-4.9-13.5 0.242-2.2 0.533-4.37 0.898-6.55z" fill="#1866B0"/>
    <path transform="translate(849,969)" d="m0 0c1.32 0.33 2.64 0.66 4 1-1.88 7.75-1.88 7.75-3 10-2.56 0.625-2.56 0.625-5 1-0.33-0.66-0.66-1.32-1-2 1.21-3.23 2.01-4.01 5-6v-4z" fill="#DCB101"/>
    <path transform="translate(717,760)" d="m0 0c1.71 1.28 3.38 2.61 5 4-2.12 0.0808-4.25 0.139-6.38 0.188-1.18 0.0348-2.37 0.0696-3.59 0.105-1.5-0.145-1.5-0.145-3.04-0.293-0.66-0.99-1.32-1.98-2-3 3.42-1.05 6.44-1.36 10-1z" fill="#1866B0"/>
    <path transform="translate(580,876)" d="m0 0c0.66 0.33 1.32 0.66 2 1v16c-2.4-2.4-2.95-4.05-3.13-7.41 0.00258-0.875 0.00516-1.75 0.00781-2.65-0.00258-0.878-0.00516-1.76-0.00781-2.66 0.133-2.28 0.133-2.28 1.13-4.28z" fill="#0699DA"/>
    <path transform="translate(1104,625)" d="m0 0 4 1c0.369 5.54 0.369 5.54-1.5 7.88-0.743 0.557-0.743 0.557-1.5 1.12-2.43-6.29-2.43-6.29-1-10z" fill="#0F80C5"/>
    <path transform="translate(733,771)" d="m0 0c3.61-0.201 5.96-0.0267 9 2 1.75 2.12 1.75 2.12 3 4-0.33 0.66-0.66 1.32-1 2-0.577-0.474-1.15-0.949-1.75-1.44-2.22-1.54-3.67-1.98-6.25-2.56-0.99-0.66-1.98-1.32-3-2v-2z" fill="#1866B0"/>
</svg>
